name C:/MyDriveSym/Projects/mobilecap/Data\Session20210816_0002\mocap\ForceDataProcessed\walkingTS4_forces.mot
datacolumns 19
datarows 9
range 0.77950000 0.78350000
endheader 
time	R_ground_force_vx	R_ground_force_vy	R_ground_force_vz	R_ground_force_px	R_ground_force_py	R_ground_force_pz	R_ground_torque_x	R_ground_torque_y	R_ground_torque_z	L_ground_force_vx	L_ground_force_vy	L_ground_force_vz	L_ground_force_px	L_ground_force_py	L_ground_force_pz	L_ground_torque_x	L_ground_torque_y	L_ground_torque_z	
          0.77950000	         14.81780900	         53.10859700	         -0.40580600	          0.36207000	          0.00600000	         -0.20109400	          0.00000000	          0.41992900	          0.00000000	        -72.57327300	        581.17831100	         32.16929500	          0.86718500	          0.00600000	         -0.34661000	          0.00000000	          1.07957700	          0.00000000	
          0.78000000	         14.55549600	         52.18280900	         -0.38854200	          0.36255600	          0.00600000	         -0.20101900	          0.00000000	          0.41555300	          0.00000000	        -72.37279600	        581.54940200	         32.17530700	          0.86731300	          0.00600000	         -0.34659500	          0.00000000	          1.07561300	          0.00000000	
          0.78050000	         14.29539500	         51.26512000	         -0.37153100	          0.36305300	          0.00600000	         -0.20094300	          0.00000000	          0.41119700	          0.00000000	        -72.17177200	        581.91836500	         32.18092200	          0.86744200	          0.00600000	         -0.34658000	          0.00000000	          1.07169500	          0.00000000	
          0.78100000	         14.03751100	         50.35551800	         -0.35476800	          0.36355900	          0.00600000	         -0.20086400	          0.00000000	          0.40686100	          0.00000000	        -71.97022600	        582.28523100	         32.18615200	          0.86757200	          0.00600000	         -0.34656500	          0.00000000	          1.06782400	          0.00000000	
          0.78150000	         13.78184800	         49.45399100	         -0.33825200	          0.36407600	          0.00600000	         -0.20078400	          0.00000000	          0.40254500	          0.00000000	        -71.76817900	        582.65003000	         32.19101000	          0.86770100	          0.00600000	         -0.34655000	          0.00000000	          1.06399900	          0.00000000	
          0.78200000	         13.52841300	         48.56052400	         -0.32198000	          0.36460300	          0.00600000	         -0.20070200	          0.00000000	          0.39824900	          0.00000000	        -71.56565500	        583.01279500	         32.19550700	          0.86783100	          0.00600000	         -0.34653400	          0.00000000	          1.06022000	          0.00000000	
          0.78250000	         13.27721000	         47.67510400	         -0.30594700	          0.36514200	          0.00600000	         -0.20061800	          0.00000000	          0.39397400	          0.00000000	        -71.36267800	        583.37355400	         32.19965300	          0.86796000	          0.00600000	         -0.34651900	          0.00000000	          1.05648800	          0.00000000	
          0.78300000	         13.02824200	         46.79771700	         -0.29015200	          0.36569200	          0.00600000	         -0.20053100	          0.00000000	          0.38972000	          0.00000000	        -71.15926900	        583.73233900	         32.20345900	          0.86809000	          0.00600000	         -0.34650300	          0.00000000	          1.05280400	          0.00000000	
          0.78350000	         12.78151400	         45.92834600	         -0.27459200	          0.36625400	          0.00600000	         -0.20044300	          0.00000000	          0.38548600	          0.00000000	        -70.95545200	        584.08917900	         32.20693500	          0.86822000	          0.00600000	         -0.34648800	          0.00000000	          1.04916600	          0.00000000	
